<svg version="1.1"  x="0px" y="0px" viewBox="0 0 256 256" enableBackground="new 0 0 256 256" >
<g><g><g><path fill="#000000" d="M31.9,55.9c-10.3,2.3-18.3,10.2-21,20.9c-1.6,6.3-0.9,12.8,2.2,19c2.2,4.5,7.8,10.2,12.1,12.3c6.8,3.4-1.8,3.1,103.3,3.1h94.3l3.7-1.2c14.1-4.8,22.3-19.4,18.7-33.2c-2.4-9.5-9-16.8-18-20.1l-3.5-1.2l-94.5-0.1C51.8,55.3,34.1,55.4,31.9,55.9z"/><path  d="M34.4,145.1c-6.5,0.8-12.3,3.9-17.1,9.1C3.8,169,9.9,192.5,29,199.5l3.3,1.2H128h95.7l3.3-1.2c9.2-3.4,15.7-10.7,18.2-20.2c3.6-13.8-4.7-28.4-18.7-33.2l-3.7-1.2l-92.7,0C79.1,144.8,36.1,144.9,34.4,145.1z"/></g></g></g>
</svg>