
<svg version="1.0" xmlns="http://www.w3.org/2000/svg"
 width="600.000000pt" height="615.000000pt" viewBox="0 0 600.000000 615.000000"
 preserveAspectRatio="xMidYMid meet">

<g transform="translate(0.000000,615.000000) scale(0.100000,-0.100000)"
stroke="none">
<path d="M1621 5685 c-333 -75 -604 -303 -732 -616 -58 -142 -73 -226 -73
-409 1 -138 4 -179 23 -250 126 -480 508 -790 971 -790 124 0 203 13 322 54
144 49 244 113 368 236 185 183 279 379 311 648 23 194 -12 386 -106 577 -127
262 -367 463 -640 536 -104 28 -347 36 -444 14z m321 -752 c92 -52 139 -143
139 -268 0 -174 -89 -291 -238 -311 -177 -23 -317 135 -301 340 18 219 221
340 400 239z"/>
<path d="M3954 5688 c-56 -19 -128 -81 -194 -170 -36 -48 -218 -355 -406 -685
-188 -329 -606 -1061 -929 -1628 -710 -1245 -808 -1417 -896 -1566 -38 -63
-85 -151 -106 -195 -37 -77 -38 -82 -38 -194 0 -105 2 -119 27 -166 35 -67
108 -138 176 -171 72 -35 195 -44 271 -18 61 20 141 90 204 178 24 34 172 287
329 562 157 275 469 822 693 1215 224 393 572 1003 773 1355 201 352 392 685
425 740 157 261 187 400 116 550 -30 64 -104 135 -175 170 -49 24 -74 29 -149
31 -49 2 -104 -2 -121 -8z"/>
<path d="M3895 2959 c-410 -44 -760 -354 -865 -765 -65 -253 -41 -505 71 -744
57 -122 118 -207 218 -303 135 -130 284 -209 471 -249 137 -29 347 -22 473 16
324 97 577 349 687 685 72 220 64 488 -19 699 -132 335 -418 585 -736 646
-109 20 -205 25 -300 15z m228 -767 c128 -72 183 -261 118 -407 -51 -115 -126
-167 -240 -167 -111 -1 -185 45 -239 147 -24 45 -27 61 -27 155 0 95 3 110 27
156 74 140 230 190 361 116z"/>
</g>
</svg>
