
<svg version="1.1" x="0px" y="0px" viewBox="0 0 256 256" enable-background="new 0 0 256 256" >

<g><g><path d="M83.5,138.5c0,0,0-0.6,0-1.1c0-0.5-0.6-0.6-0.6-0.6s-0.9,0-1.3,0s-0.6,0.6-0.6,0.6v1.1h-0.6c0,0,0,1.8,0,2.2s0.6,0.6,0.6,0.6s2,0,2.4,0c0.5,0,0.6-0.6,0.6-0.6v-2.2H83.5z M82.7,139.6l-0.3,0.3v0.6h-0.3v-0.6l-0.3-0.3v-0.3l0.3-0.3h0.3l0.3,0.3V139.6z M83,138.5h-1.3v-0.8c0,0,0.2-0.3,0.6-0.3h0.3c0.4,0,0.6,0.3,0.6,0.3L83,138.5L83,138.5z"/><path  d="M199.1,241.8L128,170.7l-71.1,71.1c-17.7,17.7-60.3-25-42.7-42.7L85.3,128L14.2,56.9c-17.7-17.7,25-60.3,42.6-42.7L128,85.3l71.1-71.1c17.7-17.7,60.3,25,42.7,42.7L170.7,128l71.1,71.1C259.4,216.8,216.8,259.4,199.1,241.8z"/></g></g>
</svg>