
<svg version="1.0" viewBox="0 0 121.000000 419.000000"
 preserveAspectRatio="xMidYMid meet">

<g transform="translate(0.000000,419.000000) scale(0.100000,-0.100000)"
stroke="none">
<path d="M1005 4180 c-109 -25 -357 -235 -503 -427 -314 -413 -482 -981 -482
-1628 0 -684 188 -1293 530 -1719 135 -168 382 -376 464 -391 78 -15 164 38
187 115 23 77 -10 149 -93 203 -292 191 -560 613 -672 1062 -63 254 -80 415
-80 735 0 414 47 685 171 995 127 316 356 612 573 739 75 44 100 83 100 156 0
43 -6 65 -23 90 -37 57 -108 85 -172 70z"/>
</g>
</svg>
