
<svg version="1.0" viewBox="0 0 120.000000 417.000000"
 preserveAspectRatio="xMidYMid meet">

<g transform="translate(0.000000,417.000000) scale(0.100000,-0.100000)"
 stroke="none">
<path d="M133 4160 c-78 -18 -123 -75 -123 -158 0 -74 20 -106 98 -156 292
-187 523 -529 648 -956 125 -428 136 -1004 28 -1470 -110 -473 -379 -909 -682
-1107 -69 -45 -92 -83 -92 -153 0 -101 60 -160 162 -160 51 0 63 5 134 52 154
103 347 309 478 509 342 527 481 1315 366 2073 -94 613 -374 1132 -769 1425
-128 95 -181 116 -248 101z"/>
</g>
</svg>
